<svg version="1.1" xmlns="http://www.w3.org/2000/svg" x="0px" y="0px" viewBox="0 0 1000 1000" enable-background="new 0 0 1000 1000" xml:space="preserve"><g><path fill="white" d="M749.2,687L538.8,500l210.4-187c10.6-9.4,11.6-25.7,2.2-36.4c-9.4-10.7-25.7-11.6-36.4-2.2L500,465.5L285,274.4c-10.6-9.4-26.9-8.5-36.4,2.2c-9.5,10.7-8.5,26.9,2.2,36.4l210.4,187L250.8,687c-10.6,9.4-11.6,25.7-2.2,36.4c5.1,5.7,12.2,8.7,19.3,8.7c6.1,0,12.2-2.2,17.1-6.5l215-191.1l215,191.1c4.9,4.4,11,6.5,17.1,6.5c7.2,0,14.2-2.9,19.3-8.7C760.8,712.8,759.9,696.5,749.2,687z"/><path fill="white" d="M500,990c-130.9,0-253.9-51-346.5-143.5C60.9,754,10,630.9,10,500c0-130.9,51-253.9,143.5-346.5C246,61,369.1,10,500,10c130.9,0,253.9,51,346.5,143.6C939.1,246.1,990,369.1,990,500C990,631,939,754,846.5,846.5C754,939,630.9,990,500,990z M500,61.6C258.2,61.6,61.6,258.2,61.6,500c0,241.8,196.7,438.4,438.4,438.4c241.8,0,438.4-196.6,438.4-438.4C938.4,258.2,741.8,61.6,500,61.6z"/></g></svg>
