<svg xmlns="http://www.w3.org/2000/svg" viewBox="0 0 14 16" class="octicon octicon-jersey">
  <path d="m 11.998814,3.7394068 c -0.22,-1.38 -0.31,-2.63 -0.27,-3.75000001 l -2.9799999,0 c 0,0.27 -0.13,0.48 -0.39,0.69 -0.25,0.20000001 -0.63,0.30000001 -1.13,0.30000001 -0.5,0 -0.88,-0.09 -1.13,-0.30000001 -0.23,-0.2 -0.36,-0.42 -0.36,-0.69 l -3.01,0 c 0.05,1.13000001 -0.03,2.38000001 -0.25,3.75000001 -0.2,1.38 -0.8,2.13 -1.75000004,2.25 l 0,8.9999992 c 0.02,0.27 0.11,0.48 0.31000004,0.69 0.2,0.21 0.42,0.3 0.69,0.31 l 10.9999999,0 c 0.27,-0.02 0.48,-0.11 0.69,-0.31 0.21,-0.2 0.3,-0.42 0.31,-0.69 l 0,-8.9999992 c -0.95,-0.13 -1.53,-0.88 -1.75,-2.25 l 0.02,0 z"/>
  <path d="m 12.728814,15.260594 -11,0 0,-8.0000008 c 0.89,-0.5 1.48,-1.25 1.72,-2.25 0.24,-1 0.31,-2.25 0.28,-3.75 l 1,0 c -0.02,0.78 0.16,1.47 0.52,2.06 0.36,0.58 1.02,0.89 2,0.94 0.98,-0.02 1.64,-0.33 2,-0.94 0.36,-0.59 0.5,-1.28 0.48,-2.06 l 1,0 c 0.02,1.42 0.13,2.55 0.33,3.38 0.2,0.81 0.69,2 1.67,2.63 l 0,8.0000008 0,-0.01 z" fill="#f9f9f9"/>
  <path d="m 159.23,431.966 c -5.84,-0.232 -10.618,-1.83 -14.354,-4.798 -0.713,-0.567 -2.412,-2.267 -2.982,-2.984 -1.515,-1.905 -2.545,-3.759 -3.232,-5.816 -2.114,-6.332 -1.026,-14.641 3.112,-23.76 3.543,-7.807 9.01,-15.55 18.548,-26.274 1.405,-1.578 5.589,-6.193 5.616,-6.193 0.01,0 -0.218,0.395 -0.505,0.876 -2.48,4.154 -4.602,9.047 -5.758,13.283 -1.857,6.797 -1.633,12.63 0.656,17.153 1.579,3.116 4.286,5.815 7.33,7.307 5.329,2.611 13.131,2.827 22.659,0.632 0.656,-0.152 33.162,-8.781 72.236,-19.176 39.074,-10.396 71.049,-18.895 71.054,-18.888 0.011,0.009 -90.78,38.859 -137.911,59.014 -7.464,3.191 -9.46,3.997 -12.969,5.229 -8.97,3.15 -17.005,4.653 -23.5,4.395 z" transform="matrix(.04866 0 0 .05668 -4.237 -12.685)" overflow="visible"/>
</svg>
